<svg width="256" height="256" viewBox="0 0 256 256" fill="none" xmlns="http://www.w3.org/2000/svg">
<g clip-path="url(#clip0_162_2)">
<path d="M159.317 255.721C159.355 255.342 159.376 254.959 159.38 254.572V162.383H190.891C195.942 162.383 200.488 159.054 201.227 154.053C202.218 147.042 202.189 139.924 201.142 132.922C200.414 128.011 196.045 124.785 191.084 124.785H159.38C159.38 96.3712 164.107 92.2406 190.754 91.7171C195.868 91.6204 200.454 88.2464 201.199 83.1827C202.45 74.6766 201.95 67.2459 201.165 62.0172C200.442 57.1866 196.113 54.0403 191.232 54.0801C144.134 54.4898 117.311 60.0599 117.311 124.78H92.9109C88.1721 124.78 83.9623 127.755 83.2398 132.438C82.4718 137.49 82.0053 144.813 83.2967 153.717C84.0363 158.861 88.667 162.383 93.861 162.383H117.311V256C80.8448 255.761 54.7442 254.322 37.7515 252.939C19.0464 251.42 4.61369 236.985 3.09476 218.278C1.58151 199.667 0 170.126 0 128.017C0 85.908 1.58151 56.3673 3.09476 37.7565C4.608 19.0489 19.0464 4.60861 37.7515 3.09517C56.3598 1.58172 85.8965 0 128 0C170.103 0 199.64 1.58172 218.249 3.09517C236.954 4.6143 251.386 19.0489 252.905 37.7565C254.419 56.3673 256 85.908 256 128.017C256 170.126 254.419 199.667 252.905 218.278C251.386 236.985 236.954 251.42 218.249 252.939C204.652 254.043 185.225 255.181 159.317 255.721Z" fill="black"/>
</g>
<defs>
<clipPath id="clip0_162_2">
<rect width="256" height="256" fill="white"/>
</clipPath>
</defs>
</svg>
